<svg xmlns="http://www.w3.org/2000/svg" xmlns:xlink="http://www.w3.org/1999/xlink" viewBox="0 0 641.11 168.78"><defs><style>.cls-1{fill:none;}.cls-2{clip-path:url(#clip-path);}.cls-3{fill:#81aa66;}.cls-4{fill:#80a966;}.cls-5{fill:#575757;}</style><clipPath id="clip-path" transform="translate(0 0)"><rect class="cls-1" width="641.11" height="168.78"/></clipPath></defs><title>siser_logo</title><g id="Capa_2" data-name="Capa 2"><g id="Capa_1-2" data-name="Capa 1"><g class="cls-2"><path class="cls-3" d="M50.57,154.37a1.08,1.08,0,0,0-.34.81l0,5.95a3.43,3.43,0,0,1-1.08,2.56,3.66,3.66,0,0,1-2.65,1.05,1.27,1.27,0,0,1-.92-.34,1.19,1.19,0,0,1-.35-.89,1.22,1.22,0,0,1,.35-.9,1.25,1.25,0,0,1,.92-.35,1.15,1.15,0,0,0,.83-.32,1.07,1.07,0,0,0,.33-.8l0-5.95a3.42,3.42,0,0,1,1.08-2.57,3.68,3.68,0,0,1,2.65-1,1.31,1.31,0,0,1,.93.34,1.3,1.3,0,0,1,0,1.77,1.44,1.44,0,0,1-.91.37,1.36,1.36,0,0,0-.87.32" transform="translate(0 0)"/><path class="cls-3" d="M55.51,151.86a1.48,1.48,0,0,1,0,2.15,1.6,1.6,0,0,1-2.23,0,1.48,1.48,0,0,1,0-2.15,1.6,1.6,0,0,1,2.23,0m.18,4.72q0-1.23-1.29-1.23a1.28,1.28,0,0,0-.92.34,1.19,1.19,0,0,0-.35.89v6.91a1.19,1.19,0,0,0,.35.89,1.28,1.28,0,0,0,.92.34,1.31,1.31,0,0,0,.93-.34,1.18,1.18,0,0,0,.36-.89Z" transform="translate(0 0)"/><path class="cls-3" d="M61.51,158.19a1,1,0,0,0-.32.77l0,2.14a3.51,3.51,0,0,1-1.09,2.56,3.63,3.63,0,0,1-2.63,1.05,1.28,1.28,0,0,1-.92-.34,1.19,1.19,0,0,1-.35-.89,1.22,1.22,0,0,1,.35-.9,1.25,1.25,0,0,1,.92-.35,1.14,1.14,0,0,0,.83-.32,1.07,1.07,0,0,0,.33-.8v-.37q0-.73,0-.76v-1a3.43,3.43,0,0,1,1.08-2.57,3.67,3.67,0,0,1,2.65-1,1.31,1.31,0,0,1,.93.34,1.17,1.17,0,0,1,.36.89,1.15,1.15,0,0,1-.34.87,1.42,1.42,0,0,1-.9.38,1.39,1.39,0,0,0-.88.36" transform="translate(0 0)"/><path class="cls-3" d="M72.28,160.75a3.8,3.8,0,0,1-1.18,2.83,4.29,4.29,0,0,1-5.84,0,3.78,3.78,0,0,1-1.18-2.84v-6.34a1.22,1.22,0,0,1,.35-.9,1.25,1.25,0,0,1,.92-.35,1.29,1.29,0,0,1,.93.35,1.2,1.2,0,0,1,.36.9v1H71a1.28,1.28,0,0,1,.92.34,1.19,1.19,0,0,1,.35.89A1.12,1.12,0,0,1,71,157.87H66.65v2.87a1.42,1.42,0,0,0,.45,1.06,1.52,1.52,0,0,0,1.09.43,1.48,1.48,0,0,0,1.08-.43,1.44,1.44,0,0,0,.44-1.06v-.17a1.17,1.17,0,0,1,.37-.88,1.29,1.29,0,0,1,.92-.35,1.26,1.26,0,0,1,.91.35,1.18,1.18,0,0,1,.36.88Z" transform="translate(0 0)"/><path class="cls-3" d="M81,158.65l-2.44,2.3a1.3,1.3,0,0,1-.89.39,1.26,1.26,0,0,1-.92-.39,1.23,1.23,0,0,1-.39-.9,1.2,1.2,0,0,1,.42-.87l1.37-1.31a3.3,3.3,0,0,0-.5,0,2.24,2.24,0,0,0-1.62.65,2.1,2.1,0,0,0-.67,1.57,2.13,2.13,0,0,0,.67,1.57,2.23,2.23,0,0,0,1.62.65H79.3a1.27,1.27,0,0,1,.92.34,1.19,1.19,0,0,1,.35.89,1.22,1.22,0,0,1-.35.9,1.25,1.25,0,0,1-.92.35H77.61a4.76,4.76,0,0,1-3.45-1.36,4.71,4.71,0,0,1,0-6.69,5.05,5.05,0,0,1,7,.08,1.19,1.19,0,0,1,.38.85,1.22,1.22,0,0,1-.55,1" transform="translate(0 0)"/><path class="cls-3" d="M92.92,164.8v-5.49a1.39,1.39,0,0,0-.45-1,1.57,1.57,0,0,0-2.29.14v5.08a1.17,1.17,0,0,1-.36.89,1.31,1.31,0,0,1-.93.34,1.27,1.27,0,0,1-.92-.34,1.19,1.19,0,0,1-.35-.89v-4.18a1.38,1.38,0,0,0-.46-1,1.6,1.6,0,0,0-2.18,0,1.39,1.39,0,0,0-.45,1.05v4.18a1.18,1.18,0,0,1-.35.89,1.27,1.27,0,0,1-.92.34,1.31,1.31,0,0,1-.93-.34,1.18,1.18,0,0,1-.36-.89v-4.18a3.75,3.75,0,0,1,1.19-2.82,4.06,4.06,0,0,1,2.92-1.14,4.12,4.12,0,0,1,2.66.94,4.07,4.07,0,0,1,2.66-.94,4,4,0,0,1,2.91,1.14,3.77,3.77,0,0,1,1.18,2.82v5.49" transform="translate(0 0)"/><path class="cls-3" d="M100.82,164.76a4.76,4.76,0,0,1-3.45-1.36,4.7,4.7,0,0,1,0-6.69,5.09,5.09,0,0,1,6.92,0,4.46,4.46,0,0,1,1.41,3.34v3.44a1.17,1.17,0,0,1-.36.89,1.3,1.3,0,0,1-.93.34,1.27,1.27,0,0,1-.92-.34,1.19,1.19,0,0,1-.35-.89V160a2.08,2.08,0,0,0-.68-1.57,2.27,2.27,0,0,0-1.63-.64,2.25,2.25,0,0,0-1.62.64,2.1,2.1,0,0,0-.67,1.57,2.12,2.12,0,0,0,.67,1.57,2.23,2.23,0,0,0,1.62.65,1.31,1.31,0,0,1,.93.34,1.17,1.17,0,0,1,.36.89,1.2,1.2,0,0,1-.36.9,1.28,1.28,0,0,1-.93.35" transform="translate(0 0)"/><path class="cls-3" d="M111.49,158.19a1,1,0,0,0-.32.77l0,2.14a3.51,3.51,0,0,1-1.1,2.56,3.63,3.63,0,0,1-2.63,1.05,1.28,1.28,0,0,1-.92-.34,1.19,1.19,0,0,1-.35-.89,1.22,1.22,0,0,1,.35-.9,1.25,1.25,0,0,1,.92-.35,1.14,1.14,0,0,0,.83-.32,1.07,1.07,0,0,0,.33-.8v-.37q0-.73,0-.76v-1a3.43,3.43,0,0,1,1.08-2.57,3.67,3.67,0,0,1,2.65-1,1.31,1.31,0,0,1,.93.34,1.17,1.17,0,0,1,.36.89,1.15,1.15,0,0,1-.34.87,1.42,1.42,0,0,1-.9.38,1.39,1.39,0,0,0-.88.36" transform="translate(0 0)"/><path class="cls-3" d="M123.36,164.72a4,4,0,0,1-2.93-1.14,3.79,3.79,0,0,1-1.18-2.84v-4.16a1.19,1.19,0,0,1,.35-.89,1.27,1.27,0,0,1,.92-.34q1.29,0,1.29,1.23v4.16a1.42,1.42,0,0,0,.45,1.06,1.52,1.52,0,0,0,1.09.43,1.48,1.48,0,0,0,1.08-.43,1.44,1.44,0,0,0,.44-1.06v-4.16a1.17,1.17,0,0,1,.36-.89,1.31,1.31,0,0,1,.93-.34,1.27,1.27,0,0,1,.92.34,1.19,1.19,0,0,1,.35.89v8.21a3.78,3.78,0,0,1-1.19,2.83,4,4,0,0,1-2.92,1.15h-.08a1.31,1.31,0,0,1-.93-.34,1.17,1.17,0,0,1-.36-.89,1.2,1.2,0,0,1,.36-.9,1.29,1.29,0,0,1,.93-.35h.08a1.51,1.51,0,0,0,1.08-.44,1.41,1.41,0,0,0,.46-1.05v-.35a4.25,4.25,0,0,1-1.52.28" transform="translate(0 0)"/><path class="cls-3" d="M138.45,154.37a1.08,1.08,0,0,0-.34.81l0,5.95a3.43,3.43,0,0,1-1.08,2.56,3.66,3.66,0,0,1-2.65,1.05,1.27,1.27,0,0,1-.92-.34,1.19,1.19,0,0,1-.35-.89,1.22,1.22,0,0,1,.35-.9,1.25,1.25,0,0,1,.92-.35,1.15,1.15,0,0,0,.83-.32,1.07,1.07,0,0,0,.33-.8l0-5.95a3.42,3.42,0,0,1,1.08-2.57,3.68,3.68,0,0,1,2.65-1,1.31,1.31,0,0,1,.93.34,1.3,1.3,0,0,1,0,1.77,1.44,1.44,0,0,1-.91.37,1.36,1.36,0,0,0-.87.32" transform="translate(0 0)"/><path class="cls-3" d="M149.2,158.65l-2.44,2.3a1.3,1.3,0,0,1-.89.39,1.26,1.26,0,0,1-.92-.39,1.23,1.23,0,0,1-.39-.9,1.2,1.2,0,0,1,.42-.87l1.37-1.31a3.3,3.3,0,0,0-.5,0,2.24,2.24,0,0,0-1.62.65,2.1,2.1,0,0,0-.67,1.57,2.13,2.13,0,0,0,.67,1.57,2.23,2.23,0,0,0,1.62.65h1.69a1.27,1.27,0,0,1,.92.34,1.19,1.19,0,0,1,.35.89,1.22,1.22,0,0,1-.35.9,1.25,1.25,0,0,1-.92.35h-1.69a4.76,4.76,0,0,1-3.45-1.36,4.71,4.71,0,0,1,0-6.69,5.05,5.05,0,0,1,7,.08,1.19,1.19,0,0,1,.38.85,1.21,1.21,0,0,1-.55,1" transform="translate(0 0)"/><path class="cls-3" d="M153.35,159.31v4.18a1.17,1.17,0,0,1-.36.89,1.31,1.31,0,0,1-.93.34,1.27,1.27,0,0,1-.92-.34,1.19,1.19,0,0,1-.35-.89v-4.18a3.75,3.75,0,0,1,1.19-2.82,4.05,4.05,0,0,1,2.92-1.14,1.26,1.26,0,0,1,.91.35,1.18,1.18,0,0,1,.36.88q0,1.14-1.31,1.25a1.76,1.76,0,0,0-1.07.45,1.33,1.33,0,0,0-.43,1" transform="translate(0 0)"/><path class="cls-3" d="M159.3,156.14l1.56,3.91,1.56-3.91a1.16,1.16,0,0,1,1.16-.81,1.37,1.37,0,0,1,.93.35,1.11,1.11,0,0,1,.4.86,1.28,1.28,0,0,1-.1.48l-2.76,6.91q-.4,1-1.2,1t-1.2-1L156.9,157a1.28,1.28,0,0,1-.1-.48,1.11,1.11,0,0,1,.4-.86,1.37,1.37,0,0,1,.93-.35,1.17,1.17,0,0,1,1.16.81" transform="translate(0 0)"/><path class="cls-3" d="M168,151.86a1.48,1.48,0,0,1,0,2.15,1.6,1.6,0,0,1-2.23,0,1.48,1.48,0,0,1,0-2.15,1.6,1.6,0,0,1,2.23,0m.18,4.72q0-1.23-1.29-1.23a1.28,1.28,0,0,0-.92.34,1.19,1.19,0,0,0-.35.89v6.91a1.19,1.19,0,0,0,.35.89,1.28,1.28,0,0,0,.92.34,1.31,1.31,0,0,0,.93-.34,1.17,1.17,0,0,0,.36-.89Z" transform="translate(0 0)"/><path class="cls-3" d="M174.1,157.8a2.23,2.23,0,0,0-1.62.65,2.13,2.13,0,0,0-.67,1.58,2.1,2.1,0,0,0,.67,1.57,2.24,2.24,0,0,0,1.62.64,1.29,1.29,0,0,1,.93.35,1.2,1.2,0,0,1,.36.9,1.18,1.18,0,0,1-.36.89,1.31,1.31,0,0,1-.93.34,4.76,4.76,0,0,1-3.44-1.36,4.68,4.68,0,0,1,0-6.69,4.76,4.76,0,0,1,3.45-1.36,1.29,1.29,0,0,1,.93.35,1.2,1.2,0,0,1,.36.9,1.17,1.17,0,0,1-.36.89,1.3,1.3,0,0,1-.93.34" transform="translate(0 0)"/><path class="cls-3" d="M178.81,151.86a1.48,1.48,0,0,1,0,2.15,1.6,1.6,0,0,1-2.23,0,1.48,1.48,0,0,1,0-2.15,1.6,1.6,0,0,1,2.23,0m.18,4.72q0-1.23-1.29-1.23a1.28,1.28,0,0,0-.92.34,1.19,1.19,0,0,0-.35.89v6.91a1.19,1.19,0,0,0,.35.89,1.28,1.28,0,0,0,.92.34,1.31,1.31,0,0,0,.93-.34,1.17,1.17,0,0,0,.36-.89Z" transform="translate(0 0)"/><path class="cls-3" d="M184.89,155.35a4.8,4.8,0,0,1,3.46,1.35,4.68,4.68,0,0,1,0,6.69,5.07,5.07,0,0,1-6.92,0,4.7,4.7,0,0,1,0-6.69,4.77,4.77,0,0,1,3.45-1.35m0,2.49a2.24,2.24,0,0,0-1.62.65,2.1,2.1,0,0,0-.67,1.57,2.13,2.13,0,0,0,.67,1.57,2.22,2.22,0,0,0,1.62.65,2.25,2.25,0,0,0,1.63-.65,2.11,2.11,0,0,0,.67-1.57,2.09,2.09,0,0,0-.67-1.57,2.28,2.28,0,0,0-1.63-.65" transform="translate(0 0)"/><path class="cls-3" d="M196.15,158.19a1,1,0,0,0-.32.77l0,2.14a3.51,3.51,0,0,1-1.1,2.56,3.63,3.63,0,0,1-2.63,1.05,1.27,1.27,0,0,1-.92-.34,1.19,1.19,0,0,1-.35-.89,1.22,1.22,0,0,1,.35-.9,1.25,1.25,0,0,1,.92-.35,1.14,1.14,0,0,0,.83-.32,1.07,1.07,0,0,0,.33-.8v-.37q0-.73,0-.76v-1a3.43,3.43,0,0,1,1.08-2.57,3.67,3.67,0,0,1,2.65-1,1.31,1.31,0,0,1,.93.34,1.17,1.17,0,0,1,.36.89,1.15,1.15,0,0,1-.34.87,1.42,1.42,0,0,1-.9.38,1.39,1.39,0,0,0-.88.36" transform="translate(0 0)"/><path class="cls-3" d="M209.91,162.27a2.26,2.26,0,0,0,1.63-.65,2.11,2.11,0,0,0,.67-1.57,2.09,2.09,0,0,0-.67-1.57,2.27,2.27,0,0,0-1.63-.64,2.24,2.24,0,0,0-1.62.64,2.1,2.1,0,0,0-.67,1.57v7.2a1.2,1.2,0,0,1-.36.9,1.29,1.29,0,0,1-.93.35,1.26,1.26,0,0,1-.92-.35,1.22,1.22,0,0,1-.35-.9V160a4.47,4.47,0,0,1,1.4-3.34,5.09,5.09,0,0,1,6.92,0,4.68,4.68,0,0,1,0,6.69,4.79,4.79,0,0,1-3.46,1.36,1.25,1.25,0,0,1-.92-.35,1.21,1.21,0,0,1-.35-.9,1.18,1.18,0,0,1,.35-.89,1.27,1.27,0,0,1,.92-.34" transform="translate(0 0)"/><path class="cls-3" d="M220.66,164.76a4.76,4.76,0,0,1-3.45-1.36,4.7,4.7,0,0,1,0-6.69,5.09,5.09,0,0,1,6.92,0,4.46,4.46,0,0,1,1.41,3.34v3.44a1.17,1.17,0,0,1-.36.89,1.3,1.3,0,0,1-.93.34,1.27,1.27,0,0,1-.92-.34,1.19,1.19,0,0,1-.35-.89V160a2.08,2.08,0,0,0-.68-1.57,2.27,2.27,0,0,0-1.63-.64,2.24,2.24,0,0,0-1.62.64,2.1,2.1,0,0,0-.66,1.57,2.12,2.12,0,0,0,.66,1.57,2.22,2.22,0,0,0,1.62.65,1.31,1.31,0,0,1,.93.34,1.17,1.17,0,0,1,.36.89,1.2,1.2,0,0,1-.36.9,1.28,1.28,0,0,1-.93.35" transform="translate(0 0)"/><path class="cls-3" d="M229.12,159.31v4.18a1.17,1.17,0,0,1-.36.89,1.31,1.31,0,0,1-.93.34,1.27,1.27,0,0,1-.92-.34,1.19,1.19,0,0,1-.35-.89v-4.18a3.75,3.75,0,0,1,1.19-2.82,4.05,4.05,0,0,1,2.92-1.14,1.26,1.26,0,0,1,.91.35,1.18,1.18,0,0,1,.36.88q0,1.14-1.31,1.25a1.75,1.75,0,0,0-1.07.45,1.33,1.33,0,0,0-.43,1" transform="translate(0 0)"/><path class="cls-3" d="M237.82,164.76a4.76,4.76,0,0,1-3.45-1.36,4.7,4.7,0,0,1,0-6.69,5.09,5.09,0,0,1,6.92,0,4.46,4.46,0,0,1,1.41,3.34v3.44a1.17,1.17,0,0,1-.36.89,1.3,1.3,0,0,1-.93.34,1.27,1.27,0,0,1-.92-.34,1.19,1.19,0,0,1-.35-.89V160a2.09,2.09,0,0,0-.67-1.57,2.28,2.28,0,0,0-1.63-.64,2.24,2.24,0,0,0-1.62.64,2.09,2.09,0,0,0-.67,1.57,2.12,2.12,0,0,0,.67,1.57,2.22,2.22,0,0,0,1.62.65,1.31,1.31,0,0,1,.93.34,1.18,1.18,0,0,1,.36.89,1.2,1.2,0,0,1-.36.9,1.28,1.28,0,0,1-.93.35" transform="translate(0 0)"/><path class="cls-3" d="M257.68,158.65l-2.44,2.3a1.3,1.3,0,0,1-.89.39,1.26,1.26,0,0,1-.92-.39,1.23,1.23,0,0,1-.39-.9,1.2,1.2,0,0,1,.42-.87l1.37-1.31a3.3,3.3,0,0,0-.5,0,2.24,2.24,0,0,0-1.62.65,2.1,2.1,0,0,0-.67,1.57,2.13,2.13,0,0,0,.67,1.57,2.23,2.23,0,0,0,1.62.65H256a1.27,1.27,0,0,1,.92.34,1.19,1.19,0,0,1,.35.89,1.22,1.22,0,0,1-.35.9,1.25,1.25,0,0,1-.92.35h-1.69a4.76,4.76,0,0,1-3.45-1.36,4.7,4.7,0,0,1,0-6.69,5.05,5.05,0,0,1,7,.08,1.19,1.19,0,0,1,.38.85,1.21,1.21,0,0,1-.55,1" transform="translate(0 0)"/><path class="cls-3" d="M261.83,152.85v10.65a1.17,1.17,0,0,1-.36.89,1.31,1.31,0,0,1-.93.34,1.27,1.27,0,0,1-.92-.34,1.19,1.19,0,0,1-.35-.89V152.85a1.19,1.19,0,0,1,.35-.89,1.27,1.27,0,0,1,.92-.34q1.29,0,1.29,1.23" transform="translate(0 0)"/><path class="cls-3" d="M275.78,164.8v-4.36a5,5,0,0,1-2.3.55,1.25,1.25,0,0,1-.92-.35,1.22,1.22,0,0,1-.35-.9,1.19,1.19,0,0,1,.35-.89,1.27,1.27,0,0,1,.92-.34,2.26,2.26,0,0,0,1.63-.65,2.11,2.11,0,0,0,.68-1.58,2.09,2.09,0,0,0-.68-1.57,2.27,2.27,0,0,0-1.63-.64,2.24,2.24,0,0,0-1.62.64,2.1,2.1,0,0,0-.67,1.57v7.22a1.17,1.17,0,0,1-.36.89,1.31,1.31,0,0,1-.93.34,1.27,1.27,0,0,1-.92-.34,1.19,1.19,0,0,1-.35-.89v-7.22a4.47,4.47,0,0,1,1.4-3.34,5.09,5.09,0,0,1,6.92,0,4.46,4.46,0,0,1,1.41,3.34v8.53" transform="translate(0 0)"/><path class="cls-3" d="M281.94,152.85v10.65a1.17,1.17,0,0,1-.36.89,1.31,1.31,0,0,1-.93.34,1.27,1.27,0,0,1-.92-.34,1.19,1.19,0,0,1-.35-.89V152.85a1.19,1.19,0,0,1,.35-.89,1.27,1.27,0,0,1,.92-.34q1.29,0,1.29,1.23" transform="translate(0 0)"/><path class="cls-3" d="M285.54,156.62v4.13a1.42,1.42,0,0,0,.45,1.06,1.51,1.51,0,0,0,1.09.43,1.48,1.48,0,0,0,1.08-.43,1.43,1.43,0,0,0,.44-1.06v-4.16a1.17,1.17,0,0,1,.36-.89,1.31,1.31,0,0,1,.93-.34,1.28,1.28,0,0,1,.92.34,1.19,1.19,0,0,1,.35.89v4.16a3.8,3.8,0,0,1-1.18,2.83,4.29,4.29,0,0,1-5.84,0,3.78,3.78,0,0,1-1.18-2.84v-4.12a1.22,1.22,0,0,1,.35-.9,1.25,1.25,0,0,1,.92-.35,1.28,1.28,0,0,1,.93.35,1.2,1.2,0,0,1,.36.9" transform="translate(0 0)"/><path class="cls-3" d="M303.17,159.31a1.39,1.39,0,0,0-.45-1,1.57,1.57,0,0,0-2.29.14v5.08a1.17,1.17,0,0,1-.36.89,1.31,1.31,0,0,1-.93.34,1.27,1.27,0,0,1-.92-.34,1.19,1.19,0,0,1-.35-.89v-4.18a1.38,1.38,0,0,0-.46-1,1.6,1.6,0,0,0-2.18,0,1.39,1.39,0,0,0-.45,1v4.18a1.18,1.18,0,0,1-.35.89,1.27,1.27,0,0,1-.92.34,1.31,1.31,0,0,1-.93-.34,1.17,1.17,0,0,1-.36-.89v-4.18a3.75,3.75,0,0,1,1.19-2.82,4.06,4.06,0,0,1,2.92-1.14,4.12,4.12,0,0,1,2.66.94,4.07,4.07,0,0,1,2.66-.94,4,4,0,0,1,2.91,1.14,3.76,3.76,0,0,1,1.18,2.82v5.49a1.42,1.42,0,0,0,.45,1.06,1.51,1.51,0,0,0,1.09.43h.08a1.29,1.29,0,0,1,.93.35,1.2,1.2,0,0,1,.36.9,1.17,1.17,0,0,1-.36.89,1.31,1.31,0,0,1-.93.34h-.08a4,4,0,0,1-2.92-1.15,3.78,3.78,0,0,1-1.19-2.83Z" transform="translate(0 0)"/><path class="cls-3" d="M311.64,155.31a4.79,4.79,0,0,1,3.46,1.36,4.66,4.66,0,0,1,0,6.69,5,5,0,0,1-6.9,0,4.46,4.46,0,0,1-1.41-3.33v-7.22a1.18,1.18,0,0,1,.36-.88,1.26,1.26,0,0,1,.91-.35,1.3,1.3,0,0,1,.93.34,1.17,1.17,0,0,1,.36.89V160a2.1,2.1,0,0,0,.67,1.57,2.24,2.24,0,0,0,1.62.64,2.27,2.27,0,0,0,1.63-.64,2.08,2.08,0,0,0,.68-1.57,2.11,2.11,0,0,0-.68-1.57,2.25,2.25,0,0,0-1.63-.65,1.27,1.27,0,0,1-.92-.34,1.19,1.19,0,0,1-.35-.89,1.22,1.22,0,0,1,.35-.9,1.25,1.25,0,0,1,.92-.35" transform="translate(0 0)"/><path class="cls-3" d="M320.1,159.31v4.18a1.17,1.17,0,0,1-.36.89,1.31,1.31,0,0,1-.93.34,1.27,1.27,0,0,1-.92-.34,1.19,1.19,0,0,1-.35-.89v-4.18a3.75,3.75,0,0,1,1.19-2.82,4.05,4.05,0,0,1,2.92-1.14,1.26,1.26,0,0,1,.91.35,1.18,1.18,0,0,1,.36.88q0,1.14-1.31,1.25a1.75,1.75,0,0,0-1.07.45,1.33,1.33,0,0,0-.43,1" transform="translate(0 0)"/><path class="cls-3" d="M328.8,164.76a4.76,4.76,0,0,1-3.45-1.36,4.7,4.7,0,0,1,0-6.69,5.09,5.09,0,0,1,6.91,0,4.45,4.45,0,0,1,1.41,3.34v3.44a1.17,1.17,0,0,1-.36.89,1.3,1.3,0,0,1-.93.34,1.28,1.28,0,0,1-.92-.34,1.19,1.19,0,0,1-.35-.89V160a2.08,2.08,0,0,0-.68-1.57,2.27,2.27,0,0,0-1.63-.64,2.25,2.25,0,0,0-1.62.64,2.1,2.1,0,0,0-.67,1.57,2.12,2.12,0,0,0,.67,1.57,2.23,2.23,0,0,0,1.62.65,1.31,1.31,0,0,1,.93.34,1.17,1.17,0,0,1,.36.89,1.2,1.2,0,0,1-.36.9,1.28,1.28,0,0,1-.93.35" transform="translate(0 0)"/><path class="cls-3" d="M339.55,157.8a2.22,2.22,0,0,0-1.62.65,2.13,2.13,0,0,0-.67,1.58,2.1,2.1,0,0,0,.67,1.57,2.24,2.24,0,0,0,1.62.64,2.27,2.27,0,0,0,1.63-.64,2.09,2.09,0,0,0,.67-1.57v-7.22a1.18,1.18,0,0,1,.36-.88,1.26,1.26,0,0,1,.91-.35,1.31,1.31,0,0,1,.93.34,1.18,1.18,0,0,1,.36.89V160a4.45,4.45,0,0,1-1.42,3.33,5,5,0,0,1-6.9,0,4.68,4.68,0,0,1,0-6.69,4.76,4.76,0,0,1,3.45-1.36,1.29,1.29,0,0,1,.93.35,1.21,1.21,0,0,1,.36.9,1.17,1.17,0,0,1-.36.89,1.31,1.31,0,0,1-.93.34" transform="translate(0 0)"/><path class="cls-3" d="M350.3,155.35a4.8,4.8,0,0,1,3.46,1.35,4.68,4.68,0,0,1,0,6.69,5.07,5.07,0,0,1-6.92,0,4.7,4.7,0,0,1,0-6.69,4.77,4.77,0,0,1,3.45-1.35m0,2.49a2.24,2.24,0,0,0-1.62.65A2.1,2.1,0,0,0,348,160a2.13,2.13,0,0,0,.67,1.57,2.22,2.22,0,0,0,1.62.65,2.25,2.25,0,0,0,1.63-.65,2.12,2.12,0,0,0,.67-1.57,2.09,2.09,0,0,0-.67-1.57,2.28,2.28,0,0,0-1.63-.65" transform="translate(0 0)"/><path class="cls-3" d="M366.83,158.5a2.26,2.26,0,0,0,1.63-.65,2.12,2.12,0,0,0,.68-1.58,2.09,2.09,0,0,0-.68-1.56,2.27,2.27,0,0,0-1.63-.64,2.23,2.23,0,0,0-1.62.64,2.1,2.1,0,0,0-.67,1.56v7.22a1.17,1.17,0,0,1-.36.89,1.3,1.3,0,0,1-.93.34,1.26,1.26,0,0,1-.91-.35,1.18,1.18,0,0,1-.36-.88v-7.22a4.47,4.47,0,0,1,1.4-3.34,5.09,5.09,0,0,1,6.92,0,4.68,4.68,0,0,1,0,6.7,4.79,4.79,0,0,1-3.46,1.36,1.25,1.25,0,0,1-.92-.35,1.22,1.22,0,0,1-.35-.9,1.19,1.19,0,0,1,.35-.89,1.27,1.27,0,0,1,.92-.34" transform="translate(0 0)"/><path class="cls-3" d="M375.3,156.62v4.13a1.42,1.42,0,0,0,.45,1.06,1.52,1.52,0,0,0,1.09.43,1.48,1.48,0,0,0,1.08-.43,1.43,1.43,0,0,0,.44-1.06v-4.16a1.17,1.17,0,0,1,.36-.89,1.31,1.31,0,0,1,.93-.34,1.27,1.27,0,0,1,.92.34,1.19,1.19,0,0,1,.35.89v4.16a3.8,3.8,0,0,1-1.18,2.83,4.29,4.29,0,0,1-5.84,0,3.79,3.79,0,0,1-1.18-2.84v-4.12a1.21,1.21,0,0,1,.35-.9,1.25,1.25,0,0,1,.92-.35,1.28,1.28,0,0,1,.93.35,1.2,1.2,0,0,1,.36.9" transform="translate(0 0)"/><path class="cls-3" d="M386.83,155.31a4.79,4.79,0,0,1,3.46,1.36,4.66,4.66,0,0,1,0,6.69,5,5,0,0,1-6.9,0A4.46,4.46,0,0,1,382,160v-7.22a1.18,1.18,0,0,1,.36-.88,1.26,1.26,0,0,1,.91-.35,1.3,1.3,0,0,1,.93.34,1.17,1.17,0,0,1,.36.89V160a2.09,2.09,0,0,0,.67,1.57,2.23,2.23,0,0,0,1.62.64,2.27,2.27,0,0,0,1.63-.64,2.08,2.08,0,0,0,.67-1.57,2.11,2.11,0,0,0-.67-1.57,2.25,2.25,0,0,0-1.63-.65,1.27,1.27,0,0,1-.92-.34,1.19,1.19,0,0,1-.35-.89,1.22,1.22,0,0,1,.35-.9,1.25,1.25,0,0,1,.92-.35" transform="translate(0 0)"/><path class="cls-3" d="M395.29,152.85v10.65a1.17,1.17,0,0,1-.36.89,1.3,1.3,0,0,1-.93.34,1.27,1.27,0,0,1-.92-.34,1.19,1.19,0,0,1-.35-.89V152.85a1.19,1.19,0,0,1,.35-.89,1.27,1.27,0,0,1,.92-.34q1.29,0,1.29,1.23" transform="translate(0 0)"/><path class="cls-3" d="M398.71,151.86a1.48,1.48,0,0,1,0,2.15,1.6,1.6,0,0,1-2.22,0,1.48,1.48,0,0,1,0-2.15,1.6,1.6,0,0,1,2.22,0m.18,4.72q0-1.23-1.29-1.23a1.28,1.28,0,0,0-.92.34,1.19,1.19,0,0,0-.35.89v6.91a1.19,1.19,0,0,0,.35.89,1.28,1.28,0,0,0,.92.34,1.31,1.31,0,0,0,.93-.34,1.17,1.17,0,0,0,.36-.89Z" transform="translate(0 0)"/><path class="cls-3" d="M404.79,157.8a2.22,2.22,0,0,0-1.62.65,2.13,2.13,0,0,0-.67,1.58,2.1,2.1,0,0,0,.67,1.57,2.23,2.23,0,0,0,1.62.64,1.29,1.29,0,0,1,.93.35,1.2,1.2,0,0,1,.36.9,1.17,1.17,0,0,1-.36.89,1.31,1.31,0,0,1-.93.34,4.76,4.76,0,0,1-3.44-1.36,4.68,4.68,0,0,1,0-6.69,4.76,4.76,0,0,1,3.45-1.36,1.29,1.29,0,0,1,.93.35,1.2,1.2,0,0,1,.36.9,1.17,1.17,0,0,1-.36.89,1.3,1.3,0,0,1-.93.34" transform="translate(0 0)"/><path class="cls-3" d="M412,155.35a4.8,4.8,0,0,1,3.46,1.35,4.68,4.68,0,0,1,0,6.69,5.07,5.07,0,0,1-6.92,0,4.7,4.7,0,0,1,0-6.69,4.77,4.77,0,0,1,3.45-1.35m0,2.49a2.24,2.24,0,0,0-1.62.65,2.09,2.09,0,0,0-.67,1.57,2.12,2.12,0,0,0,.67,1.57,2.22,2.22,0,0,0,1.62.65,2.26,2.26,0,0,0,1.63-.65,2.12,2.12,0,0,0,.67-1.57,2.09,2.09,0,0,0-.67-1.57,2.28,2.28,0,0,0-1.63-.65" transform="translate(0 0)"/><path class="cls-3" d="M434.6,164.8v-9.24a1.43,1.43,0,0,0-.45-1.05,1.48,1.48,0,0,0-1.08-.44,1.46,1.46,0,0,0-1.22.59v8.84a1.17,1.17,0,0,1-.36.89,1.3,1.3,0,0,1-.93.34,1.27,1.27,0,0,1-.92-.34,1.19,1.19,0,0,1-.35-.89v-7.94a1.41,1.41,0,0,0-.46-1.05,1.57,1.57,0,0,0-2.18,0,1.42,1.42,0,0,0-.45,1.06v7.94a1.19,1.19,0,0,1-.35.89,1.27,1.27,0,0,1-.92.34,1.31,1.31,0,0,1-.93-.34,1.18,1.18,0,0,1-.36-.89v-7.94a3.78,3.78,0,0,1,1.19-2.83,4.23,4.23,0,0,1,5.58-.19,4.22,4.22,0,0,1,5.57.19,3.8,3.8,0,0,1,1.18,2.83v9.24" transform="translate(0 0)"/><path class="cls-3" d="M440.78,156.62v4.13a1.42,1.42,0,0,0,.45,1.06,1.51,1.51,0,0,0,1.09.43,1.48,1.48,0,0,0,1.08-.43,1.43,1.43,0,0,0,.44-1.06v-4.16a1.17,1.17,0,0,1,.36-.89,1.31,1.31,0,0,1,.93-.34,1.27,1.27,0,0,1,.92.34,1.19,1.19,0,0,1,.35.89v4.16a3.8,3.8,0,0,1-1.18,2.83,4.29,4.29,0,0,1-5.84,0,3.79,3.79,0,0,1-1.18-2.84v-4.12a1.22,1.22,0,0,1,.35-.9,1.25,1.25,0,0,1,.92-.35,1.28,1.28,0,0,1,.93.35,1.2,1.2,0,0,1,.36.9" transform="translate(0 0)"/><path class="cls-3" d="M453.11,164.8v-.87l0-4.62a1.39,1.39,0,0,0-.45-1,1.49,1.49,0,0,0-1.07-.43,1.53,1.53,0,0,0-1.09.42,1.39,1.39,0,0,0-.45,1.05v4.18a1.17,1.17,0,0,1-.36.89,1.3,1.3,0,0,1-.93.34,1.27,1.27,0,0,1-.92-.34,1.19,1.19,0,0,1-.35-.89v-4.18a3.75,3.75,0,0,1,1.19-2.82,4.31,4.31,0,0,1,5.84,0,3.75,3.75,0,0,1,1.19,2.82v5.49" transform="translate(0 0)"/><path class="cls-3" d="M459.09,151.86a1.48,1.48,0,0,1,0,2.15,1.6,1.6,0,0,1-2.22,0,1.48,1.48,0,0,1,0-2.15,1.6,1.6,0,0,1,2.22,0m.18,4.72q0-1.23-1.29-1.23a1.28,1.28,0,0,0-.92.34,1.19,1.19,0,0,0-.35.89v6.91a1.19,1.19,0,0,0,.35.89,1.28,1.28,0,0,0,.92.34,1.31,1.31,0,0,0,.93-.34,1.18,1.18,0,0,0,.36-.89Z" transform="translate(0 0)"/><path class="cls-3" d="M465.17,157.8a2.22,2.22,0,0,0-1.62.65,2.13,2.13,0,0,0-.67,1.58,2.1,2.1,0,0,0,.67,1.57,2.24,2.24,0,0,0,1.62.64,1.29,1.29,0,0,1,.93.35,1.2,1.2,0,0,1,.36.9,1.18,1.18,0,0,1-.36.89,1.31,1.31,0,0,1-.93.34,4.76,4.76,0,0,1-3.44-1.36,4.68,4.68,0,0,1,0-6.69,4.76,4.76,0,0,1,3.45-1.36,1.29,1.29,0,0,1,.93.35,1.21,1.21,0,0,1,.36.9,1.17,1.17,0,0,1-.36.89,1.31,1.31,0,0,1-.93.34" transform="translate(0 0)"/><path class="cls-3" d="M469.88,151.86a1.48,1.48,0,0,1,0,2.15,1.6,1.6,0,0,1-2.22,0,1.48,1.48,0,0,1,0-2.15,1.6,1.6,0,0,1,2.22,0m.18,4.72q0-1.23-1.29-1.23a1.28,1.28,0,0,0-.92.34,1.19,1.19,0,0,0-.35.89v6.91a1.19,1.19,0,0,0,.35.89,1.28,1.28,0,0,0,.92.34,1.31,1.31,0,0,0,.93-.34,1.18,1.18,0,0,0,.36-.89Z" transform="translate(0 0)"/><path class="cls-3" d="M476,162.27a2.26,2.26,0,0,0,1.63-.65,2.12,2.12,0,0,0,.67-1.57,2.09,2.09,0,0,0-.67-1.57,2.27,2.27,0,0,0-1.63-.64,2.24,2.24,0,0,0-1.62.64,2.1,2.1,0,0,0-.67,1.57v7.2a1.2,1.2,0,0,1-.36.9,1.28,1.28,0,0,1-.93.35,1.26,1.26,0,0,1-.92-.35,1.22,1.22,0,0,1-.35-.9V160a4.47,4.47,0,0,1,1.4-3.34,5.09,5.09,0,0,1,6.92,0,4.68,4.68,0,0,1,0,6.69,4.79,4.79,0,0,1-3.46,1.36,1.25,1.25,0,0,1-.92-.35,1.22,1.22,0,0,1-.35-.9,1.18,1.18,0,0,1,.35-.89,1.27,1.27,0,0,1,.92-.34" transform="translate(0 0)"/><path class="cls-3" d="M486.71,164.76a4.76,4.76,0,0,1-3.45-1.36,4.7,4.7,0,0,1,0-6.69,5.09,5.09,0,0,1,6.92,0,4.46,4.46,0,0,1,1.41,3.34v3.44a1.17,1.17,0,0,1-.36.89,1.3,1.3,0,0,1-.93.34,1.27,1.27,0,0,1-.92-.34,1.19,1.19,0,0,1-.35-.89V160a2.09,2.09,0,0,0-.67-1.57,2.28,2.28,0,0,0-1.63-.64,2.24,2.24,0,0,0-1.62.64,2.1,2.1,0,0,0-.67,1.57,2.13,2.13,0,0,0,.67,1.57,2.22,2.22,0,0,0,1.62.65,1.31,1.31,0,0,1,.93.34,1.17,1.17,0,0,1,.36.89,1.2,1.2,0,0,1-.36.9,1.29,1.29,0,0,1-.93.35" transform="translate(0 0)"/><path class="cls-3" d="M495.18,152.85v10.65a1.17,1.17,0,0,1-.36.89,1.3,1.3,0,0,1-.93.34,1.27,1.27,0,0,1-.92-.34,1.19,1.19,0,0,1-.35-.89V152.85A1.19,1.19,0,0,1,493,152a1.27,1.27,0,0,1,.92-.34q1.29,0,1.29,1.23" transform="translate(0 0)"/><path class="cls-3" d="M507.3,154.37a1.08,1.08,0,0,0-.34.81l0,5.95a3.43,3.43,0,0,1-1.08,2.56,3.66,3.66,0,0,1-2.64,1.05,1.28,1.28,0,0,1-.92-.34,1.19,1.19,0,0,1-.35-.89,1.22,1.22,0,0,1,.35-.9,1.26,1.26,0,0,1,.92-.35,1.14,1.14,0,0,0,.83-.32,1.07,1.07,0,0,0,.33-.8l0-5.95a3.42,3.42,0,0,1,1.08-2.57,3.68,3.68,0,0,1,2.65-1,1.31,1.31,0,0,1,.93.34,1.18,1.18,0,0,1,.36.89,1.16,1.16,0,0,1-.33.88,1.43,1.43,0,0,1-.91.37,1.36,1.36,0,0,0-.86.32" transform="translate(0 0)"/><path class="cls-3" d="M517.57,164.8v-4.36a5,5,0,0,1-2.3.55,1.25,1.25,0,0,1-.92-.35,1.22,1.22,0,0,1-.35-.9,1.19,1.19,0,0,1,.35-.89,1.27,1.27,0,0,1,.92-.34,2.26,2.26,0,0,0,1.63-.65,2.11,2.11,0,0,0,.68-1.58,2.09,2.09,0,0,0-.68-1.57,2.27,2.27,0,0,0-1.63-.64,2.24,2.24,0,0,0-1.62.64,2.1,2.1,0,0,0-.67,1.57v7.22a1.18,1.18,0,0,1-.36.89,1.31,1.31,0,0,1-.93.34,1.28,1.28,0,0,1-.92-.34,1.19,1.19,0,0,1-.35-.89v-7.22a4.47,4.47,0,0,1,1.4-3.34,5.09,5.09,0,0,1,6.92,0,4.45,4.45,0,0,1,1.41,3.34v8.53" transform="translate(0 0)"/><path class="cls-3" d="M531.78,157.8a2.22,2.22,0,0,0-1.62.65,2.13,2.13,0,0,0-.67,1.58,2.1,2.1,0,0,0,.67,1.57,2.24,2.24,0,0,0,1.62.64,2.27,2.27,0,0,0,1.63-.64,2.09,2.09,0,0,0,.67-1.57v-7.22a1.18,1.18,0,0,1,.36-.88,1.26,1.26,0,0,1,.91-.35,1.31,1.31,0,0,1,.93.34,1.18,1.18,0,0,1,.36.89V160a4.45,4.45,0,0,1-1.42,3.33,5,5,0,0,1-6.9,0,4.68,4.68,0,0,1,0-6.69,4.76,4.76,0,0,1,3.45-1.36,1.29,1.29,0,0,1,.93.35,1.21,1.21,0,0,1,.36.9,1.17,1.17,0,0,1-.36.89,1.31,1.31,0,0,1-.93.34" transform="translate(0 0)"/><path class="cls-3" d="M545.88,158.65l-2.44,2.3a1.3,1.3,0,0,1-.89.39,1.27,1.27,0,0,1-.92-.39,1.24,1.24,0,0,1-.39-.9,1.2,1.2,0,0,1,.42-.87l1.37-1.31a3.3,3.3,0,0,0-.5,0,2.25,2.25,0,0,0-1.62.65,2.1,2.1,0,0,0-.67,1.57,2.13,2.13,0,0,0,.67,1.57,2.23,2.23,0,0,0,1.62.65h1.69a1.27,1.27,0,0,1,.92.34,1.19,1.19,0,0,1,.35.89,1.22,1.22,0,0,1-.35.9,1.25,1.25,0,0,1-.92.35h-1.69a4.76,4.76,0,0,1-3.45-1.36,4.71,4.71,0,0,1,0-6.69,5.05,5.05,0,0,1,7,.08,1.19,1.19,0,0,1,.38.85,1.21,1.21,0,0,1-.55,1" transform="translate(0 0)"/><path class="cls-3" d="M560,164.76a6.69,6.69,0,0,1-4.83-1.91,6.52,6.52,0,0,1,0-9.36,6.69,6.69,0,0,1,4.83-1.92,1.31,1.31,0,0,1,.93.34,1.18,1.18,0,0,1,.36.89,1.2,1.2,0,0,1-.36.9,1.28,1.28,0,0,1-.93.35,4.17,4.17,0,0,0-3,1.19,4.09,4.09,0,0,0,0,5.84,4.17,4.17,0,0,0,3,1.19,1.29,1.29,0,0,1,.93.35,1.21,1.21,0,0,1,.36.9,1.17,1.17,0,0,1-.36.89,1.31,1.31,0,0,1-.93.34" transform="translate(0 0)"/><path class="cls-3" d="M566,152.4l2.61,7.29,2.61-7.29a1.16,1.16,0,0,1,1.18-.85,1.37,1.37,0,0,1,.93.35,1.11,1.11,0,0,1,.4.86,1.33,1.33,0,0,1-.1.44l-3.8,10.68q-.38,1.05-1.22,1.05t-1.22-1.05l-3.83-10.68a1.38,1.38,0,0,1-.08-.44,1.1,1.1,0,0,1,.4-.86,1.37,1.37,0,0,1,.93-.35,1.16,1.16,0,0,1,1.18.85" transform="translate(0 0)"/><path class="cls-4" d="M513.33,36.59c13.28,0,26.56,0,39.83,0,1.84,0,3-.41,3.47-2.4,2.59-10.93,8.9-19.32,18.22-25.34,10.43-6.73,21.84-8.45,33.88-5.44A41.1,41.1,0,0,1,635.4,23.59,41.28,41.28,0,0,1,640,54.3c-3.43,14.91-12.63,25-26.53,30.64A39.64,39.64,0,0,1,590.64,87a43.05,43.05,0,0,1-28.38-18.58,43.83,43.83,0,0,1-5.18-10.68,2,2,0,0,0-2.24-1.63c-11.27.17-22.55-.27-33.82.26a4.57,4.57,0,0,0-4.1,2.83c-.7,1.44.11,2.7,1.05,3.68a5,5,0,0,0,3.78,1.17c4.64,0,9.28,0,13.92,0,3.52,0,7,.06,10.53.35,6,.51,10.15,8.05,7.44,13.5-2.51,5.06-6.88,6.26-11.94,6.28-7,0-13.92.07-20.88,0-2.16,0-3.22,1.21-3.94,2.89s.31,2.86,1.38,3.8,2.68.91,4.1.93c4.16,0,8.32,0,12.48,0,4.59,0,8.74,3,9.71,6.8,1.3,5.15-.51,9.56-5,11.94a12.47,12.47,0,0,1-5.83,1.06q-11.64.06-23.27.09c-1.61,0-3.32,0-4.62.92a3.09,3.09,0,0,0-1.26,3.8,3.91,3.91,0,0,0,3.72,2.87c4.72,0,9.44,0,14.16,0a9.87,9.87,0,0,1,9.36,5.55c3.43,6.72-1.57,14.22-8.16,14.23-23.6,0-47.2.26-70.79-.14-12.49-.21-22.35-7.92-26.64-20.13a47.29,47.29,0,0,1-2.38-16.46c.11-11.28.15-22.56,0-33.83-.13-9.41,3.27-17.18,9.88-23.76Q454.34,24.23,474.9,3.56a10.74,10.74,0,0,1,8-3.56c4.28,0,7.1,2.15,8.91,5.73a9.89,9.89,0,0,1-1.94,10.87c-5.82,5.91-11.71,11.74-17.56,17.63-.58.58-1.75,1-1.31,2,.35.76,1.45.36,2.21.36q20,0,40.07,0m70.24,0c2.72,0,5.44,0,8.16,0a9.05,9.05,0,0,1,5.88,2.32,9.72,9.72,0,0,1-6.5,17.23c-4.72,0-9.44,0-14.16,0-.77,0-1.77-.35-2.24.39s.32,1.51.72,2.13c8.16,12.75,23.61,16.2,36.06,9.1A26.52,26.52,0,1,0,573.82,34.2c-.81,1.8-.42,2.48,1.58,2.41,2.72-.09,5.44,0,8.16,0" transform="translate(0 0)"/><path class="cls-5" d="M399.62,107.74l19.84,30.86H405.78c-5.35,0-10.71-.1-16.07,0a4.24,4.24,0,0,1-4.23-2.2c-5.6-8.93-11.41-17.73-17.07-26.62-1-1.54-2-2.42-4-2.24a40.42,40.42,0,0,1-6.47,0c-1.65-.11-2,.54-2,2.05.07,8.88,0,17.76.09,26.63,0,2-.61,2.56-2.57,2.45a111.76,111.76,0,0,0-14.58,0c-3.4.25-6.85-.1-10.27-.11-1,0-1.27-.41-1.18-1.28,0-.24,0-.48,0-.72q0-35.39,0-70.78c0-1.55.39-2.05,2-2q12.47.07,24.95-.06c1.44,0,1.72.55,1.7,1.83-.07,4,0,8-.05,12,0,1.1.08,1.73,1.51,1.72q12.24-.1,24.47,0c1.62,0,2-.5,2-2-.09-4.48-.11-9,0-13.44.06-1.86-.45-2.39-2.36-2.38-17.2.08-34.4,0-51.59.1-2.11,0-2.65-.48-2.61-2.6.13-8,.08-16,0-24,0-1.41.22-1.91,1.78-1.9,13.59,0,27.19,0,40.78-.07,8.79,0,17.59.11,26.38,0,5.83-.1,9.7,3,13.06,7.19,2.43,3,3.19,6.45,3.15,10.33-.15,14.07-.07,28.15-.09,42.22a15.57,15.57,0,0,1-12.87,15.11" transform="translate(0 0)"/><path class="cls-5" d="M234.07,32.7c0,33.21.48,69.41.48,102.62v3.17H298.7a2.9,2.9,0,0,0,2.83-1.66c5-8.17,10.1-16.29,15.13-24.44.39-.63,1.31-1.27.83-2.05-.37-.61-1.33-.24-2-.24q-25.55,0-51.1,0c-1.46,0-2.47.08-2.46-2q.16-22.31,0-44.62c0-1.82.67-2,2.21-2,14.32,0,28.63,0,42.94,0h10.53a5.56,5.56,0,0,0-1.33-2.87c-4.91-7.94-9.91-17.82-14.74-25.81Z" transform="translate(0 0)"/><path class="cls-5" d="M71.91,91.47A287.61,287.61,0,0,1,47.66,66a13.19,13.19,0,0,0-1.36-1.47H9.58l42.28,45-.23.58H48.85q-23.52,0-47,0c-1.75,0-2.38.16-1.22,2C5.78,120.3,10.88,128.59,16,136.9a2.9,2.9,0,0,0,2.83,1.61c18.72-.06,37.43,0,56.14-.07a14.1,14.1,0,0,0,14.3-14.05c.14-5.25.53-10.49-2.72-15.25-4.34-6.35-8.9-12.43-14.61-17.66" transform="translate(0 0)"/><path class="cls-5" d="M98.47,85.45c0-16.87,0-33.75,0-50.62,0-1.45.25-1.82,1.79-1.81q12.35.09,24.7-.13c1.81,0,2.25.47,2.24,2.26q-.08,50.62,0,101.25c0,1.92-.65,2.2-2.32,2.18-8.07-.1-16.15-.14-24.22-.06-1.77,0-2.23-.4-2.22-2.21.08-17,0-33.91,0-50.86" transform="translate(0 0)"/><path class="cls-5" d="M88.88,61.4H49.71c-14.31,0-28.62,0-42.93.1-2.25,0-2.66-.7-2.57-2.7.15-3.59,0-7.19.07-10.79.12-9.16,5.9-15,15-15,16.79-.06,33.57,0,50.36-.07,1,0,1.76,0,2.41,1.05,5.36,8.78,10.81,17.51,16.23,26.26.16.25.26.54.56,1.16" transform="translate(0 0)"/><path class="cls-5" d="M302.18,71.5h-35.8V99.86c5.78,0,11.57,0,17.35.09,1.43,0,1.94-.8,2.53-1.75q7.68-12.4,15.36-24.8c.31-.51.9-1,.56-1.89" transform="translate(0 0)"/><path class="cls-5" d="M207.44,91.47A287.47,287.47,0,0,1,183.19,66a13.2,13.2,0,0,0-1.36-1.47H145.11l42.28,45-.23.58h-2.79q-23.52,0-47,0c-1.75,0-2.38.16-1.22,2,5.19,8.24,10.29,16.54,15.38,24.84a2.9,2.9,0,0,0,2.83,1.61c18.71-.06,37.43,0,56.14-.07a14.1,14.1,0,0,0,14.3-14.05c.14-5.25.53-10.49-2.72-15.25-4.34-6.35-8.9-12.43-14.61-17.66" transform="translate(0 0)"/><path class="cls-5" d="M224.41,61.4H185.24c-14.31,0-28.62,0-42.93.1-2.25,0-2.66-.7-2.57-2.7.15-3.59,0-7.19.07-10.79.12-9.16,5.9-15,15-15,16.79-.06,33.57,0,50.36-.07,1,0,1.76,0,2.41,1.05,5.36,8.78,10.81,17.51,16.23,26.26.16.25.26.54.56,1.16" transform="translate(0 0)"/></g></g></g></svg>